PathFileType	4	(X/Y/Z)	C:/Users/opensim2020/Desktop/walking_exp_matlab/subject02_walking11_straight_02.trc	
DataRate	CameraRate	NumFrames	NumMarkers	Units	OrigDataRate	OrigDataStartFrame	OrigNumFrames	
100.00	100.00	9	42	mm	100.00	1720	230	
Frame#	Time	LFHD			RFHD			LBHD			RBHD			C7			T10			CLAV			STRN			RBAK			LSHO			LUPA			LELB			LFRM			LWRA			LWRB			LFIN			RSHO			RUPA			RELB			RFRM			RWRA			RWRB			RFIN			LASI			RASI			LPSI			RPSI			LTHI			LKNE			LTIB			LANK			LHEE			LTOE			RTHI			RKNE			RTIB			RANK			RHEE			RTOE			*39			*40			*41			
		X1	Y1	Z1	X2	Y2	Z2	X3	Y3	Z3	X4	Y4	Z4	X5	Y5	Z5	X6	Y6	Z6	X7	Y7	Z7	X8	Y8	Z8	X9	Y9	Z9	X10	Y10	Z10	X11	Y11	Z11	X12	Y12	Z12	X13	Y13	Z13	X14	Y14	Z14	X15	Y15	Z15	X16	Y16	Z16	X17	Y17	Z17	X18	Y18	Z18	X19	Y19	Z19	X20	Y20	Z20	X21	Y21	Z21	X22	Y22	Z22	X23	Y23	Z23	X24	Y24	Z24	X25	Y25	Z25	X26	Y26	Z26	X27	Y27	Z27	X28	Y28	Z28	X29	Y29	Z29	X30	Y30	Z30	X31	Y31	Z31	X32	Y32	Z32	X33	Y33	Z33	X34	Y34	Z34	X35	Y35	Z35	X36	Y36	Z36	X37	Y37	Z37	X38	Y38	Z38	X39	Y39	Z39	X40	Y40	Z40	X41	Y41	Z41	X42	Y42	Z42	

87	0.860	-1068.21082	233.06854	1756.47998	-1207.37280	243.01247	1720.36182	-1040.93518	361.27237	1681.53625	-1178.95996	382.59497	1643.58557	-1104.46326	416.05505	1535.96143	-1114.13965	474.68295	1261.05859	-1081.53430	279.49350	1464.30493	-1087.26514	230.54913	1291.00720	-1173.25354	472.11304	1364.03076	-919.24561	360.95746	1512.85913	-839.24884	398.91986	1315.01819	-831.36517	418.31808	1175.49158	-815.60046	425.07477	1044.51636	-839.65619	381.07071	911.85706	-809.99628	428.93567	920.65900	-806.12598	417.20609	854.00647	-1282.59705	322.49771	1497.35254	-1370.81824	333.29633	1304.58276	-1386.57874	309.91504	1159.79980	-1404.22314	267.60397	1047.89417	-1384.29761	205.90315	927.86279	-1417.92798	250.51514	919.18994	-1420.35217	205.47423	862.30713	-963.82532	252.42894	1001.37555	-1219.29919	232.73383	984.41510	-1059.11731	455.92642	1040.79626	-1173.98853	451.96738	1039.89429	-885.06000	274.93738	696.42004	-900.23230	255.47409	505.54172	-925.74597	362.16647	351.36526	-958.07532	422.06436	137.11037	-1020.71741	441.15631	113.79414	-893.85895	305.40021	59.33545	-1276.43933	311.37146	676.15155	-1228.61951	324.54764	466.66946	-1229.70837	374.80353	284.13022	-1185.59814	402.81744	94.15314	-1127.53833	439.08420	42.37458	-1206.61865	253.67400	38.74115	-1158.22986	342.38492	1808.88794	-3356.97607	2845.99609	1034.25269			 
88	0.870	-1067.80554	225.14432	1755.98181	-1207.42126	234.33214	1719.78638	-1041.28772	353.90283	1682.00085	-1179.76794	374.81876	1644.21387	-1105.69031	409.17368	1536.18970	-1115.47925	468.22342	1261.28381	-1082.19788	272.92795	1464.34253	-1088.24365	223.96071	1290.94067	-1175.00085	465.07813	1364.38989	-920.31866	355.19623	1512.56226	-840.70587	395.83401	1315.38159	-832.66553	416.07513	1175.73474	-816.59393	423.72083	1044.79810	-840.04333	380.15817	911.86011	-811.33569	428.09738	920.78278	-806.89380	416.91040	854.19501	-1283.45667	314.77734	1497.99500	-1371.91687	323.60538	1305.10034	-1388.10718	298.53290	1160.59570	-1405.40112	254.91809	1049.03735	-1384.74768	191.99611	929.86945	-1419.18738	236.01666	920.80945	-1420.74451	190.31631	864.31519	-965.08221	246.00655	1001.76300	-1220.53125	226.93391	983.62823	-1059.58276	449.76590	1041.12000	-1174.40649	445.95081	1040.00500	-885.80688	266.57101	697.18994	-901.80786	244.98318	505.66000	-926.14398	345.85944	346.70712	-956.97546	396.81857	129.86534	-1019.57819	414.94788	105.61070	-892.89655	276.73740	57.54166	-1276.53821	307.86206	675.81030	-1229.04663	322.82184	466.75580	-1229.64124	374.01096	284.23914	-1185.54980	402.66348	94.25524	-1127.51978	439.05820	42.49189	-1206.66235	253.65578	38.68297	-1158.61316	333.32205	1809.13379						 
89	0.880	-1067.92786	216.63991	1754.87329	-1207.21082	225.83417	1719.25537	-1042.06592	346.58090	1682.26978	-1180.54871	367.12271	1644.65942	-1106.82532	402.28571	1536.30615	-1116.66638	461.32642	1261.27307	-1082.59839	266.26227	1464.10266	-1089.17542	217.50293	1290.69434	-1176.67590	458.19299	1364.64404	-921.29498	349.34448	1512.00330	-842.07343	391.80338	1315.38892	-834.11530	413.26132	1175.68713	-817.74731	421.78610	1044.87769	-840.23718	379.28708	911.97882	-812.40015	427.78082	921.19019	-807.54907	416.61517	854.49799	-1284.05579	307.01379	1498.23071	-1373.29395	313.80344	1305.71362	-1389.52185	287.28531	1161.33325	-1406.59229	242.28735	1050.26648	-1385.15430	178.13583	931.90485	-1419.98499	221.58937	922.28943	-1421.04114	175.29832	866.30322	-966.08221	239.77960	1001.80640	-1221.58032	220.47339	982.92981	-1059.99951	443.60086	1041.30249	-1174.78748	439.84067	1040.01807	-886.99481	257.63031	697.93225	-903.19031	234.85791	505.62985	-926.16028	329.66098	341.96826	-955.40161	371.42645	122.87096	-1017.89294	389.20227	97.95966	-891.84204	247.86586	55.93588	-1276.55920	304.26132	675.44971	-1229.10803	321.04269	466.54483	-1229.58923	373.18246	284.33069	-1185.37817	402.58524	94.37306	-1127.34106	439.03949	42.57978	-1206.71643	253.79085	38.59966	-1158.82813	324.30652	1809.22864	-3356.88354	2845.98608	1034.22046			 
90	0.890	-1067.33667	208.67873	1754.14880	-1206.93335	217.27469	1718.54309	-1042.62756	339.10550	1682.59387	-1181.67090	359.64651	1645.39929	-1107.79810	395.38202	1536.25183	-1117.83142	455.23044	1261.39856	-1083.34070	259.49506	1463.72058	-1089.95825	211.04524	1290.38623	-1178.17432	451.21594	1364.86072	-922.06030	343.67346	1511.57202	-843.26807	387.99133	1315.11597	-835.41113	410.47131	1175.74133	-818.97302	420.44781	1045.06750	-840.25702	378.06903	911.95068	-813.44135	427.03320	921.35834	-808.03552	416.14081	854.68762	-1284.59070	299.18109	1498.31042	-1374.62207	304.24783	1306.20093	-1390.90674	276.08627	1162.17297	-1407.13770	229.64230	1051.44714	-1385.37305	164.35364	933.85291	-1420.75085	207.32730	923.76569	-1421.26062	160.39627	868.31201	-966.70178	233.32397	1001.74329	-1222.42273	214.80638	982.04034	-1060.38000	437.31235	1041.29199	-1175.15344	433.73486	1039.94299	-887.49097	248.94960	698.93530	-904.64832	225.08658	505.38272	-925.82678	313.45139	337.18781	-953.42010	345.78369	116.27952	-1015.45258	363.22141	89.96741	-890.50452	218.97060	54.58821	-1276.53918	300.65036	675.10535	-1228.74060	319.21622	466.02747	-1229.51001	372.35571	284.43091	-1185.32520	402.39423	94.51907	-1127.27429	439.08157	42.81076	-1206.76123	253.83403	38.57943	-1159.09241	315.14780	1809.49329	-3356.89746	2845.92773	1034.09619			 
91	0.900	-1067.17981	200.53717	1752.92908	-1206.71594	208.77478	1717.77795	-1042.89795	331.74490	1682.49060	-1182.38672	351.60782	1645.98816	-1108.66199	388.51343	1536.14563	-1118.74866	448.75009	1261.31396	-1083.54382	252.87865	1463.50415	-1090.73633	204.42268	1289.83911	-1179.43860	444.36475	1364.88782	-922.80109	337.86029	1510.99707	-844.46466	383.80432	1314.96362	-836.82440	407.72433	1175.87488	-820.05353	418.36581	1044.92383	-840.19275	376.81308	911.79980	-814.34180	426.16589	921.49146	-808.30780	415.85501	855.04126	-1284.87866	291.70810	1498.45789	-1375.65771	294.85422	1306.60315	-1391.96777	265.00604	1162.76050	-1407.88770	217.02785	1052.61194	-1385.46960	150.72063	935.72070	-1421.26929	193.19206	925.19049	-1421.32043	145.62708	870.27478	-967.04358	226.80345	1001.49756	-1223.11328	208.94347	981.29633	-1060.72681	430.99353	1041.09021	-1175.52466	427.60126	1039.82275	-888.21936	240.35573	699.36407	-905.94287	215.79179	504.86325	-925.22205	297.14032	332.40643	-950.92664	320.25760	110.13945	-1012.63751	336.67743	82.75937	-889.02606	190.16690	53.85569	-1276.58179	296.94397	674.70233	-1229.15576	317.17508	466.09784	-1229.38196	371.43591	284.52475	-1184.89539	402.51880	94.75083	-1127.15723	438.92804	42.65704	-1206.82959	253.84265	38.53770	-1158.90552	306.10529	1809.28113	-3360.26196	2845.14990	1034.09546			 
92	0.910	-1066.72791	192.20836	1752.07654	-1206.24927	200.28282	1716.85376	-1043.37695	324.14462	1682.09167	-1182.73523	343.86646	1646.19739	-1109.34949	381.66516	1535.94666	-1119.59033	442.29047	1261.11633	-1083.96375	246.21324	1463.05493	-1091.28076	197.90346	1289.60645	-1180.10193	437.45065	1364.74854	-923.37506	331.92484	1510.29785	-845.54102	379.50803	1314.66858	-837.95605	404.44290	1175.81091	-821.02472	416.74478	1045.08435	-840.02710	375.35278	911.59326	-815.20490	425.11542	921.61157	-808.66882	415.56827	855.23688	-1285.23657	284.22211	1498.54602	-1376.09949	285.46375	1306.67822	-1392.62329	254.01248	1163.11279	-1408.45239	204.68132	1053.68079	-1385.42114	137.25845	937.61084	-1421.67346	179.23456	926.59045	-1421.29248	130.97682	872.24030	-967.32391	220.30182	1001.05890	-1223.57813	202.97437	980.61261	-1061.05408	424.61554	1040.76807	-1175.72656	421.36331	1039.47754	-889.36908	232.07716	699.59436	-907.29254	206.53151	504.21490	-924.18591	280.75751	327.70297	-948.48297	294.22873	104.18156	-1009.51801	310.64914	76.40490	-887.50226	161.30200	53.72172	-1276.62769	293.33328	674.32922	-1228.81970	315.19977	465.52518	-1229.33630	370.40939	284.59521	-1184.74304	402.32047	94.89974	-1127.00781	438.79565	42.74178	-1206.92078	253.88510	38.52343	-1159.11804	296.99759	1809.39136	-3356.97021	2845.80273	1034.18970			 
93	0.920	-1066.14941	184.29504	1750.44568	-1205.76917	191.82376	1715.83398	-1043.39465	317.00555	1682.28101	-1182.88867	336.12854	1646.39136	-1109.93762	374.80420	1535.62134	-1120.29846	435.81396	1260.87195	-1084.29700	239.44774	1462.35229	-1091.71997	191.40178	1289.07202	-1181.65039	430.72751	1364.74426	-924.03412	325.89407	1509.41833	-846.38293	375.24695	1314.31067	-838.93121	401.24384	1175.62244	-821.83978	414.56610	1045.24426	-839.83600	373.69467	911.02338	-815.99640	423.64859	921.52307	-808.96399	414.60278	855.40302	-1285.56030	276.72781	1498.38391	-1376.67725	276.25677	1306.80115	-1393.32239	243.14165	1163.54651	-1409.05139	192.56108	1054.68140	-1385.34729	123.84383	939.42743	-1421.91174	165.37437	927.92120	-1421.18079	116.56808	874.16687	-967.39093	213.69167	1000.63104	-1224.10229	196.85051	979.77209	-1061.31226	418.29834	1040.32507	-1175.94836	415.27087	1039.06726	-890.28351	223.74516	699.68866	-908.45587	197.59425	503.35858	-922.95361	264.54474	323.23807	-945.20673	268.40070	99.16541	-1006.26520	284.38235	70.51283	-885.90582	132.66438	54.44721	-1276.66968	289.66483	673.86139	-1229.16187	312.99838	465.53909	-1229.25403	369.38754	284.67316	-1184.60828	402.13974	95.03947	-1126.90552	438.78616	42.98563	-1207.00476	253.87563	38.51224	-1158.90869	287.91034	1809.21753	-3356.95557	2846.04883	1034.14795			 
94	0.930	-1065.48975	176.22226	1749.09082	-1205.18274	183.32962	1714.61719	-1043.49341	309.59998	1682.00024	-1183.02356	328.42148	1646.51282	-1110.37585	367.89700	1535.25671	-1120.83008	429.32825	1260.52319	-1084.20337	232.79538	1461.79370	-1092.08545	184.85991	1288.42334	-1182.43860	423.83316	1364.41895	-924.35242	320.00998	1508.71167	-847.25262	370.72635	1313.82947	-839.63232	397.68402	1175.34961	-822.59961	412.12216	1045.13293	-839.59650	372.01556	910.76776	-816.61261	422.68216	921.60193	-809.23334	413.75644	855.21649	-1285.67554	269.40720	1498.40100	-1376.90955	267.28809	1306.75720	-1394.17603	232.39442	1164.10608	-1409.01514	180.32372	1055.68738	-1385.22290	110.80293	941.32727	-1421.98303	151.76834	929.24811	-1420.96924	102.26734	876.08881	-967.39154	206.97403	1000.15607	-1224.36011	191.09859	979.35114	-1061.53857	412.13937	1039.85962	-1176.08899	409.10818	1038.53333	-890.96722	216.06985	699.44427	-909.58569	189.05667	502.56284	-921.55518	248.39172	319.07111	-942.21094	242.84784	94.77982	-1002.66235	258.34515	65.22633	-884.21448	104.26051	55.98393	-1276.69373	285.98694	673.40857	-1228.77710	310.79056	464.90790	-1229.17004	368.29843	284.76321	-1184.41113	401.94308	95.15354	-1126.78894	438.85068	43.15913	-1207.10999	253.91084	38.47051	-1158.71411	278.87671	1808.92358	-3357.05908	2845.89111	1034.25354			 
95	0.940	-1064.40564	168.36528	1747.84937	-1204.54822	175.02710	1713.49866	-1043.45398	302.15445	1681.97839	-1183.02722	320.88455	1646.42871	-1110.72742	361.04901	1534.81250	-1121.21692	422.87610	1260.07397	-1084.35132	226.09236	1461.17249	-1092.37195	178.34183	1287.73425	-1183.12000	417.12308	1364.12830	-924.61987	313.89816	1507.81677	-848.04871	365.90948	1313.10925	-840.83899	393.74081	1174.96851	-823.44067	409.42401	1044.78552	-839.05377	370.50763	910.65198	-817.13074	421.27850	921.57074	-809.32330	412.72183	855.15967	-1285.62842	262.12418	1498.01282	-1377.31372	258.24896	1306.79993	-1394.53076	221.75278	1164.39502	-1409.05322	168.36513	1056.59644	-1384.66956	97.68454	942.92896	-1421.90918	138.30214	930.52832	-1420.49988	88.18410	877.92816	-967.34845	200.09750	999.62366	-1224.67664	184.89215	978.58514	-1061.67920	405.84097	1039.30249	-1176.08484	403.00970	1037.91492	-891.43939	208.53429	699.04895	-910.63873	180.67360	501.66690	-920.25122	232.54713	315.42288	-938.81628	217.25514	91.12797	-999.16077	232.58604	60.76827	-882.43298	76.59614	57.98019	-1276.68213	282.26663	672.93298	-1229.05530	308.29239	464.85947	-1229.09424	367.09201	284.81403	-1184.25781	401.75922	95.32719	-1126.25879	438.77634	43.35173	-1207.22363	253.91132	38.43595	-1158.46887	269.79456	1808.55322	-3360.35034	2845.12476	1034.08093			 
